<svg width="1280" height="720" xmlns="http://www.w3.org/2000/svg" xmlns:xlink="http://www.w3.org/1999/xlink" overflow="hidden"><defs><clipPath id="clip0"><rect x="0" y="0" width="1280" height="720"/></clipPath></defs><g clip-path="url(#clip0)"><rect x="0" y="0" width="1280" height="720" fill="#FFFFFF"/><path d="M655.82 245.392C661.031 245.392 665.583 246.86 669.476 249.795 673.37 252.73 676.814 257.072 679.808 262.822L665.972 268.842C663.097 262.972 660.612 258.914 658.515 256.668 656.419 254.422 653.814 253.299 650.699 253.299 649.022 253.299 647.465 253.598 646.027 254.197 644.59 254.796 643.272 255.979 642.074 257.746 640.876 259.513 639.858 261.864 639.019 264.799 638.181 267.734 637.043 272.615 635.605 279.443L629.316 309.182C628.358 313.674 627.28 317.627 626.082 321.041 624.884 324.455 623.491 327.689 621.904 330.744 620.317 333.799 618.64 336.509 616.873 338.875 615.106 341.241 613.084 343.622 610.808 346.017L610.808 346.916C614.582 346.916 618.31 347.335 621.994 348.174 625.678 349.012 629.316 350.09 632.91 351.408 636.564 352.786 640.053 353.879 643.377 354.687 646.701 355.496 649.98 355.9 653.215 355.9 656.749 355.9 659.743 355.421 662.199 354.463 664.655 353.504 667.066 351.857 669.431 349.521 671.797 347.185 674.957 342.993 678.91 336.943L685.738 341.435C678.491 352.636 672.276 360.348 667.096 364.57 661.915 368.793 656.689 370.904 651.418 370.904 646.926 370.904 642.688 370.425 638.705 369.467 634.722 368.508 630.814 367.221 626.98 365.603 622.668 363.866 618.939 362.564 615.795 361.695 612.65 360.827 609.431 360.392 606.137 360.392 602.543 360.392 599.114 361.066 595.849 362.414 592.585 363.762 587.928 366.592 581.879 370.904L577.117 364.974C584.604 358.206 590.923 353.594 596.074 351.139 602.722 344.79 607.544 334.727 610.539 320.951L619.164 281.24C620.721 274.053 622.608 268.273 624.824 263.9 627.04 259.528 629.676 256.129 632.73 253.703 635.785 251.277 639.169 249.286 642.883 247.728 646.596 246.171 650.909 245.392 655.82 245.392Z" fill-rule="evenodd"/><text fill="#000000" fill-opacity="0" font-family="Arial,Arial_MSFontService,sans-serif" font-size="125.512" x="577.117" y="355.215">ℒ</text></g></svg>