<svg width="1280" height="720" xmlns="http://www.w3.org/2000/svg" xmlns:xlink="http://www.w3.org/1999/xlink" overflow="hidden"><defs><clipPath id="clip0"><rect x="0" y="0" width="1280" height="720"/></clipPath></defs><g clip-path="url(#clip0)"><rect x="0" y="0" width="1280" height="720" fill="#FFFFFF"/><path d="M565.147 202.068 567.662 207.369C564.488 216.054 561.343 227.314 558.229 241.15L547.537 290.025C545.86 297.692 545.022 303.651 545.022 307.904 545.022 310.779 545.651 312.98 546.909 314.508 548.166 316.035 550.113 316.799 552.748 316.799 554.246 316.799 555.653 316.499 556.971 315.9 558.289 315.301 559.621 314.403 560.969 313.205 562.317 312.007 564.638 309.701 567.932 306.287L573.233 311.228C568.8 316.2 565.207 319.689 562.452 321.695 559.696 323.702 556.881 325.184 554.006 326.142 551.131 327.101 547.927 327.58 544.393 327.58 540.2 327.58 536.651 326.067 533.746 323.043 530.841 320.018 529.269 315.99 529.03 310.959L528.221 310.869C523.19 316.559 517.814 320.767 512.094 323.492 506.374 326.217 500.22 327.58 493.631 327.58 488.061 327.58 483.374 326.202 479.571 323.447 475.767 320.692 472.967 316.963 471.17 312.261 469.373 307.56 468.475 302.244 468.475 296.314 468.475 289.845 469.433 281.505 471.35 271.293 473.267 261.08 476.007 250.748 479.571 240.297 483.134 229.845 486.893 221.414 490.846 215.006L490.666 214.107C480.724 214.107 473.192 214.556 468.071 215.455 462.95 216.353 459.266 217.881 457.02 220.037 454.774 222.193 453.651 225.308 453.651 229.381 453.651 232.435 454.699 236.149 456.795 240.521L442.959 245.912C441.642 243.756 440.698 241.734 440.129 239.847 439.56 237.961 439.276 235.879 439.276 233.603 439.276 231.088 440.024 228.542 441.522 225.966 443.319 222.852 446.269 219.647 450.371 216.353 454.474 213.059 458.697 210.379 463.039 208.312 467.382 206.246 472.009 204.883 476.92 204.224 480.394 203.745 485.755 203.506 493.002 203.506L503.245 203.506 505.76 208.806C503.664 213.358 501.448 219.303 499.112 226.64 496.776 233.978 494.455 242.333 492.149 251.707 489.843 261.08 488.106 269.226 486.938 276.144 485.77 283.062 485.186 289.516 485.186 295.506 485.186 302.214 486.504 307.44 489.139 311.183 491.774 314.927 495.518 316.799 500.37 316.799 503.784 316.799 507.078 316.14 510.252 314.822 513.427 313.504 516.466 311.588 519.371 309.072 522.276 306.556 524.762 303.831 526.828 300.896 528.895 297.961 530.407 294.457 531.366 290.384L546.37 221.834C547.987 214.526 549.544 208.896 551.041 204.943Z" fill-rule="evenodd"/><text fill="#000000" fill-opacity="0" font-family="Arial,Arial_MSFontService,sans-serif" font-size="125.512" x="439.276" y="311.891">𝒰</text></g></svg>