<svg width="1280" height="720" xmlns="http://www.w3.org/2000/svg" xmlns:xlink="http://www.w3.org/1999/xlink" overflow="hidden"><defs><clipPath id="clip0"><rect x="0" y="0" width="1280" height="720"/></clipPath></defs><g clip-path="url(#clip0)"><rect x="0" y="0" width="1280" height="720" fill="#FFFFFF"/><path d="M492.874 202.068 495.389 207.369C492.215 216.054 489.07 227.314 485.956 241.15L475.264 290.025C473.587 297.692 472.749 303.651 472.749 307.904 472.749 310.779 473.377 312.98 474.635 314.508 475.893 316.035 477.84 316.799 480.475 316.799 481.972 316.799 483.38 316.499 484.698 315.9 486.015 315.301 487.348 314.403 488.696 313.205 490.043 312.007 492.364 309.701 495.659 306.287L500.959 311.228C496.527 316.2 492.933 319.689 490.178 321.695 487.423 323.702 484.608 325.184 481.733 326.142 478.858 327.101 475.654 327.58 472.12 327.58 467.927 327.58 464.378 326.067 461.473 323.043 458.568 320.018 456.996 315.99 456.756 310.959L455.948 310.869C450.917 316.559 445.541 320.767 439.821 323.492 434.101 326.217 427.946 327.58 421.358 327.58 415.788 327.58 411.101 326.202 407.297 323.447 403.494 320.692 400.694 316.963 398.897 312.261 397.1 307.56 396.202 302.244 396.202 296.314 396.202 289.845 397.16 281.505 399.077 271.293 400.993 261.08 403.734 250.748 407.297 240.297 410.861 229.845 414.62 221.414 418.573 215.006L418.393 214.107C408.45 214.107 400.918 214.556 395.797 215.455 390.676 216.353 386.993 217.881 384.747 220.037 382.5 222.193 381.377 225.308 381.377 229.381 381.377 232.435 382.426 236.149 384.522 240.521L370.686 245.912C369.368 243.756 368.425 241.734 367.856 239.847 367.287 237.961 367.002 235.879 367.002 233.603 367.002 231.088 367.751 228.542 369.249 225.966 371.045 222.852 373.995 219.647 378.098 216.353 382.201 213.059 386.424 210.379 390.766 208.312 395.109 206.246 399.736 204.883 404.647 204.224 408.121 203.745 413.482 203.506 420.729 203.506L430.971 203.506 433.487 208.806C431.39 213.358 429.174 219.303 426.838 226.64 424.502 233.978 422.181 242.333 419.875 251.707 417.569 261.08 415.833 269.226 414.665 276.144 413.497 283.062 412.913 289.516 412.913 295.506 412.913 302.214 414.23 307.44 416.866 311.183 419.501 314.927 423.245 316.799 428.096 316.799 431.51 316.799 434.805 316.14 437.979 314.822 441.153 313.504 444.193 311.588 447.098 309.072 450.003 306.556 452.489 303.831 454.555 300.896 456.622 297.961 458.134 294.457 459.092 290.384L474.096 221.834C475.713 214.526 477.271 208.896 478.768 204.943Z" fill-rule="evenodd"/><text fill="#000000" fill-opacity="0" font-family="Arial,Arial_MSFontService,sans-serif" font-size="125.512" x="367.002" y="311.891">𝒰</text><path d="M444.627 423.068C449.838 423.068 454.39 424.536 458.284 427.47 462.177 430.405 465.621 434.748 468.616 440.498L454.78 446.517C451.905 440.647 449.419 436.59 447.323 434.343 445.226 432.097 442.621 430.974 439.506 430.974 437.829 430.974 436.272 431.274 434.834 431.873 433.397 432.472 432.079 433.655 430.881 435.422 429.683 437.188 428.665 439.539 427.827 442.474 426.988 445.409 425.85 450.291 424.413 457.119L418.124 486.857C417.165 491.349 416.087 495.302 414.889 498.716 413.691 502.131 412.299 505.365 410.711 508.42 409.124 511.474 407.447 514.185 405.68 516.55 403.913 518.916 401.892 521.297 399.616 523.693L399.616 524.591C403.389 524.591 407.118 525.011 410.801 525.849 414.485 526.688 418.124 527.766 421.717 529.084 425.371 530.461 428.86 531.554 432.184 532.363 435.508 533.172 438.788 533.576 442.022 533.576 445.556 533.576 448.551 533.097 451.006 532.138 453.462 531.18 455.873 529.533 458.239 527.197 460.605 524.861 463.764 520.668 467.717 514.619L474.545 519.111C467.298 530.312 461.084 538.023 455.903 542.246 450.722 546.468 445.496 548.58 440.225 548.58 435.733 548.58 431.495 548.101 427.512 547.142 423.529 546.184 419.621 544.896 415.788 543.279 411.475 541.542 407.747 540.239 404.602 539.371 401.458 538.502 398.238 538.068 394.944 538.068 391.35 538.068 387.921 538.742 384.657 540.09 381.392 541.437 376.736 544.267 370.686 548.58L365.924 542.65C373.411 535.882 379.73 531.27 384.881 528.814 391.53 522.465 396.351 512.403 399.346 498.627L407.971 458.916C409.529 451.728 411.415 445.948 413.631 441.576 415.848 437.203 418.483 433.804 421.538 431.379 424.592 428.953 427.976 426.961 431.69 425.404 435.403 423.847 439.716 423.068 444.627 423.068Z" fill-rule="evenodd"/><text fill="#000000" fill-opacity="0" font-family="Arial,Arial_MSFontService,sans-serif" font-size="125.512" x="365.924" y="532.891">ℒ</text></g></svg>